<svg width="16" height="16" viewBox="0 0 16 16" fill="none" xmlns="http://www.w3.org/2000/svg">
<path d="M5.11784 0.5C2.81701 0.5 0.951172 2.36583 0.951172 4.66667V11.3333C0.951172 13.6342 2.81701 15.5 5.11784 15.5H11.7845C14.0853 15.5 15.9512 13.6342 15.9512 11.3333V4.66667C15.9512 2.36583 14.0853 0.5 11.7845 0.5H5.11784ZM13.4512 2.16667C13.9112 2.16667 14.2845 2.54 14.2845 3C14.2845 3.46 13.9112 3.83333 13.4512 3.83333C12.9912 3.83333 12.6178 3.46 12.6178 3C12.6178 2.54 12.9912 2.16667 13.4512 2.16667ZM8.45117 3.83333C10.752 3.83333 12.6178 5.69917 12.6178 8C12.6178 10.3008 10.752 12.1667 8.45117 12.1667C6.15034 12.1667 4.2845 10.3008 4.2845 8C4.2845 5.69917 6.15034 3.83333 8.45117 3.83333ZM8.45117 5.5C7.78813 5.5 7.15225 5.76339 6.6834 6.23223C6.21456 6.70107 5.95117 7.33696 5.95117 8C5.95117 8.66304 6.21456 9.29893 6.6834 9.76777C7.15225 10.2366 7.78813 10.5 8.45117 10.5C9.11421 10.5 9.7501 10.2366 10.2189 9.76777C10.6878 9.29893 10.9512 8.66304 10.9512 8C10.9512 7.33696 10.6878 6.70107 10.2189 6.23223C9.7501 5.76339 9.11421 5.5 8.45117 5.5Z" fill="white" fill-opacity="0.5"/>
</svg>
