<svg width="15" height="15" viewBox="0 0 15 15" fill="none" xmlns="http://www.w3.org/2000/svg">
<path d="M15 0C14.415 0.434035 13.2413 1.02556 12.5513 1.19618C12.531 1.20274 12.5145 1.21117 12.495 1.21774C11.8853 0.465908 11.0498 0 10.125 0C8.26125 0 6.75 1.88894 6.75 4.21849C6.75 4.34129 6.74175 4.56721 6.75 4.68721C4.23525 4.68721 2.32125 3.04106 0.94875 0.937441C0.7995 1.40616 0.73425 2.14674 0.73425 2.84232C0.73425 4.15568 1.5555 5.4456 2.83425 6.24524C2.59875 6.32117 2.33925 6.37554 2.06925 6.37554C1.6335 6.37554 1.17225 6.23211 0.75 5.79714C0.75 5.81307 0.75 5.82807 0.75 5.84495C0.75 7.68046 2.3085 8.93007 3.6945 9.27786C3.41325 9.48503 2.84625 9.50566 2.5695 9.50566C2.3745 9.50566 1.6845 9.3941 1.5 9.35098C1.8855 10.8556 3.276 11.7011 4.60125 11.7311C3.56475 12.7473 2.8455 13.1242 0.723 13.1242H0C1.341 14.1985 3.04875 15 4.76025 15C10.3328 15 13.5 9.69127 13.5 4.68721C13.5 4.60659 13.4985 4.43785 13.4963 4.26817C13.4963 4.2513 13.5 4.23536 13.5 4.21849C13.5 4.19318 13.494 4.1688 13.494 4.14349C13.4918 4.016 13.4895 3.89694 13.4872 3.83507C14.0798 3.30073 14.5935 2.63421 15 1.87488C14.4563 2.17674 13.8728 2.37923 13.26 2.4711C13.8855 2.00238 14.7743 0.884945 15 0Z" fill="white" fill-opacity="0.5"/>
</svg>
